<svg version="1.1" id="Layer_1" xmlns="http://www.w3.org/2000/svg" xmlns:xlink="http://www.w3.org/1999/xlink" x="0px" y="0px"
	 width="100%" viewBox="0 0 225 225" enable-background="new 0 0 225 225" xml:space="preserve">
<path fill="#FFFEFE" opacity="1.000000" stroke="none" 
	d="
M131.000000,226.000000 
	C87.333336,226.000000 44.166672,226.000000 1.000006,226.000000 
	C1.000004,151.000000 1.000004,76.000015 1.000002,1.000016 
	C75.999992,1.000011 150.999985,1.000011 225.999969,1.000005 
	C225.999985,75.999985 225.999985,150.999969 226.000000,225.999969 
	C194.500000,226.000000 163.000000,226.000000 131.000000,226.000000 
M12.993375,156.269485 
	C11.615713,159.733963 9.103839,163.207565 9.131606,166.660736 
	C9.171247,171.590683 10.453244,176.403870 9.211550,181.508469 
	C8.720513,183.527115 9.972761,186.721237 11.522375,188.327484 
	C14.693130,191.614151 18.271027,194.809494 22.268488,196.941330 
	C34.866604,203.659821 48.496071,207.576508 62.663418,208.849579 
	C74.878723,209.947250 87.081253,209.604004 96.859840,200.226486 
	C97.542229,199.572098 98.929596,199.401093 99.980141,199.423645 
	C106.295197,199.559326 112.674408,200.475815 118.901657,199.844254 
	C124.817223,199.244324 129.590332,199.752594 134.271088,203.932175 
	C136.809311,206.198669 140.785995,207.392502 144.291916,207.949753 
	C167.333420,211.612137 188.205017,205.024597 208.419037,194.483887 
	C219.614883,188.645798 215.140228,178.282227 216.713776,169.740494 
	C217.316788,166.467178 215.659668,162.761581 214.930496,159.274261 
	C214.807281,158.684967 214.012070,158.258469 213.799957,157.660110 
	C213.496567,156.804214 213.167175,155.807129 213.326569,154.960220 
	C215.596909,142.895996 212.634216,138.399811 200.281265,135.331024 
	C211.864136,95.350838 196.616714,56.831070 167.187180,34.799961 
	C137.510406,12.583772 96.336380,10.711437 64.372337,30.172440 
	C29.275990,51.540520 15.959561,86.520569 24.251669,135.562790 
	C13.230823,138.485916 9.306171,145.372910 12.993375,156.269485 
z"/>
<path fill="#FF9D02" opacity="1.000000" stroke="none" 
	d="
M12.941895,155.884521 
	C9.306171,145.372910 13.230823,138.485916 24.251669,135.562790 
	C15.959561,86.520569 29.275990,51.540520 64.372337,30.172440 
	C96.336380,10.711437 137.510406,12.583772 167.187180,34.799961 
	C196.616714,56.831070 211.864136,95.350838 200.281265,135.331024 
	C212.634216,138.399811 215.596909,142.895996 213.326569,154.960220 
	C213.167175,155.807129 213.496567,156.804214 213.799957,157.660110 
	C214.012070,158.258469 214.807281,158.684967 214.930496,159.274261 
	C215.659668,162.761581 217.316788,166.467178 216.713776,169.740494 
	C215.140228,178.282227 219.614883,188.645798 208.419037,194.483887 
	C188.205017,205.024597 167.333420,211.612137 144.291916,207.949753 
	C140.785995,207.392502 136.809311,206.198669 134.271088,203.932175 
	C129.590332,199.752594 124.817223,199.244324 118.901657,199.844254 
	C112.674408,200.475815 106.295197,199.559326 99.980141,199.423645 
	C98.929596,199.401093 97.542229,199.572098 96.859840,200.226486 
	C87.081253,209.604004 74.878723,209.947250 62.663418,208.849579 
	C48.496071,207.576508 34.866604,203.659821 22.268488,196.941330 
	C18.271027,194.809494 14.693130,191.614151 11.522375,188.327484 
	C9.972761,186.721237 8.720513,183.527115 9.211550,181.508469 
	C10.453244,176.403870 9.171247,171.590683 9.131606,166.660736 
	C9.103839,163.207565 11.615713,159.733963 12.941895,155.884521 
M163.831009,129.331299 
	C165.031525,130.432953 166.232025,131.534607 166.977600,132.218781 
	C171.292542,129.362335 174.951431,125.675766 179.310318,124.421249 
	C183.416336,123.239487 188.259949,124.620575 193.006516,124.886963 
	C200.649246,94.038177 186.575943,58.442860 157.452866,39.301258 
	C127.622910,19.695036 89.470970,21.443180 60.243744,44.625736 
	C34.892658,64.733795 24.453247,99.109528 32.547653,127.158951 
	C42.128365,120.900856 44.805035,121.447929 58.438782,132.450729 
	C66.881187,125.928085 71.323730,125.159554 77.382637,130.405334 
	C80.141151,132.793625 81.720032,136.562851 83.770767,139.746414 
	C88.234077,146.675293 92.100494,154.077789 97.235977,160.462128 
	C103.759148,168.571640 108.070709,176.733093 104.418190,187.338226 
	C104.116333,188.214676 104.258064,189.243896 104.166458,190.607483 
	C110.130913,190.607483 115.834610,190.607483 121.417122,190.607483 
	C121.656433,189.953751 121.908844,189.619217 121.860107,189.336594 
	C121.636299,188.038467 121.444519,186.716278 121.031799,185.472214 
	C118.256371,177.106201 121.032829,169.448074 126.286835,163.672546 
	C133.929352,155.271393 139.699219,146.083466 144.225174,135.776871 
	C147.745285,127.760826 155.050919,125.459877 163.831009,129.331299 
M27.385509,189.177948 
	C37.469223,192.427170 47.422569,196.197540 57.677376,198.762817 
	C66.073311,200.863083 74.822289,200.913452 83.204155,197.812592 
	C96.134552,193.028992 100.443756,177.398422 91.144737,167.806778 
	C83.833733,160.265686 78.406082,151.761383 74.340096,142.138687 
	C73.433258,139.992523 70.425636,138.734024 68.385223,137.066849 
	C66.925873,139.434357 64.301132,141.801453 64.300270,144.169495 
	C64.299164,147.173050 66.214088,150.291458 67.725349,153.135834 
	C68.546402,154.681168 70.354218,155.669388 71.517258,157.074234 
	C72.945549,158.799484 75.360069,161.069962 72.328857,162.770844 
	C70.754509,163.654251 67.525185,163.007660 65.834785,161.873169 
	C64.077950,160.694092 63.343800,158.046753 62.043545,156.121796 
	C57.407131,149.257843 53.018166,142.188995 47.850613,135.747147 
	C46.495838,134.058289 42.666073,134.354828 39.972935,133.739578 
	C39.943264,136.423874 39.817398,139.112900 39.948418,141.789322 
	C39.983192,142.499725 40.725430,143.247177 41.281921,143.848999 
	C45.680729,148.606171 50.192444,153.261719 54.498077,158.100967 
	C56.336140,160.166840 57.765720,162.596146 59.380917,164.860321 
	C58.830917,165.471298 58.280918,166.082291 57.730923,166.693283 
	C55.412884,165.222565 53.053547,163.812622 50.784256,162.270187 
	C42.735607,156.799515 34.782684,151.182709 26.603693,145.916016 
	C25.611351,145.277023 22.562460,145.943863 22.059847,146.870071 
	C21.285482,148.297043 21.314682,150.760406 22.063143,152.252197 
	C22.885958,153.892151 24.783171,155.123169 26.431320,156.195801 
	C32.696861,160.273514 39.158371,164.058716 45.316986,168.287689 
	C47.659969,169.896545 51.062180,171.519974 49.227329,176.339722 
	C46.862534,175.166687 44.670918,174.149750 42.544491,173.011047 
	C37.124424,170.108612 31.817575,166.978836 26.293856,164.292847 
	C23.700878,163.031998 20.327019,161.526642 18.493349,165.388977 
	C16.856583,168.836578 19.650930,170.759781 22.139519,172.005402 
	C27.316013,174.596405 32.779755,176.613586 37.955849,179.205292 
	C40.361393,180.409775 42.370804,182.405411 44.559784,184.042404 
	C44.211258,184.595123 43.862736,185.147842 43.514210,185.700546 
	C38.621807,186.839706 35.156628,183.082199 31.089184,181.417358 
	C28.496510,180.356140 26.036098,178.770279 23.352032,178.217102 
	C21.966497,177.931549 19.724808,179.009506 18.826452,180.195755 
	C18.286194,180.909149 19.161024,183.468643 20.151022,184.400879 
	C22.053314,186.192230 24.489693,187.416397 27.385509,189.177948 
M185.225723,133.219559 
	C180.443314,132.215012 177.618103,135.226257 175.345520,138.541885 
	C171.126068,144.697861 167.359695,151.162888 163.205872,157.366104 
	C161.687515,159.633591 159.853455,161.881210 157.656815,163.409988 
	C156.761337,164.033203 154.270737,163.060638 153.009796,162.130768 
	C152.482117,161.741608 152.844467,159.284042 153.541733,158.280930 
	C154.853943,156.393051 156.767746,154.935944 158.315475,153.196579 
	C161.648590,149.450729 163.137512,145.285782 160.980728,140.364197 
	C159.223633,136.354675 156.225327,135.823700 153.352905,139.177811 
	C152.404068,140.285767 151.902420,141.764908 151.104279,143.015610 
	C146.134003,150.804001 141.987244,159.321594 135.960464,166.186676 
	C125.666969,177.911957 129.050125,194.023972 144.293182,197.948059 
	C151.427277,199.784592 159.402344,199.624756 166.821991,198.800690 
	C179.768524,197.362778 192.030350,193.139725 203.332657,186.424698 
	C206.024918,184.825150 208.414337,182.587112 206.423126,179.768692 
	C205.529877,178.504349 201.590897,178.447662 199.500229,179.177841 
	C195.624191,180.531555 192.164551,183.031296 188.382812,184.721008 
	C186.552170,185.538940 184.384781,185.603226 182.369858,186.008728 
	C182.063919,185.270065 181.757980,184.531387 181.452042,183.792725 
	C183.739197,182.211990 185.882217,180.344086 188.342911,179.109116 
	C193.813187,176.363647 199.621017,174.242722 204.894333,171.183121 
	C206.405426,170.306412 206.558029,167.088364 207.333511,164.943863 
	C205.266190,164.566940 203.195862,163.895065 201.132599,163.916092 
	C199.740784,163.930252 198.283066,164.784500 196.986069,165.500656 
	C192.041138,168.231140 187.227631,171.211899 182.197144,173.768845 
	C180.336197,174.714737 178.011871,174.748932 175.898880,175.198944 
	C176.989105,173.252670 177.675919,170.843826 179.259262,169.462982 
	C181.987167,167.083923 185.285904,165.363907 188.321823,163.332565 
	C193.282288,160.013489 198.425858,156.915146 203.041840,153.168793 
	C204.307526,152.141571 204.572525,148.980835 204.085571,147.115280 
	C203.875824,146.311722 200.472855,145.746857 198.720505,146.091187 
	C196.525330,146.522507 194.325378,147.717407 192.495865,149.078018 
	C186.378845,153.627243 180.415863,158.384277 174.415894,163.089767 
	C172.280884,164.764160 170.326279,166.967880 166.521866,164.923920 
	C168.110352,162.638947 169.281647,160.465408 170.907883,158.714325 
	C174.533936,154.809860 178.569244,151.277435 182.095688,147.290787 
	C185.487823,143.455994 189.121506,139.425598 185.225723,133.219559 
z"/>
<path fill="#FED11E" opacity="1.000000" stroke="none" 
	d="
M163.548523,129.092651 
	C155.050919,125.459877 147.745285,127.760826 144.225174,135.776871 
	C139.699219,146.083466 133.929352,155.271393 126.286835,163.672546 
	C121.032829,169.448074 118.256371,177.106201 121.031799,185.472214 
	C121.444519,186.716278 121.636299,188.038467 121.860107,189.336594 
	C121.908844,189.619217 121.656433,189.953751 121.417122,190.607483 
	C115.834610,190.607483 110.130913,190.607483 104.166458,190.607483 
	C104.258064,189.243896 104.116333,188.214676 104.418190,187.338226 
	C108.070709,176.733093 103.759148,168.571640 97.235977,160.462128 
	C92.100494,154.077789 88.234077,146.675293 83.770767,139.746414 
	C81.720032,136.562851 80.141151,132.793625 77.382637,130.405334 
	C71.323730,125.159554 66.881187,125.928085 58.438782,132.450729 
	C44.805035,121.447929 42.128365,120.900856 32.547653,127.158951 
	C24.453247,99.109528 34.892658,64.733795 60.243744,44.625736 
	C89.470970,21.443180 127.622910,19.695036 157.452866,39.301258 
	C186.575943,58.442860 200.649246,94.038177 193.006516,124.886963 
	C188.259949,124.620575 183.416336,123.239487 179.310318,124.421249 
	C174.951431,125.675766 171.292542,129.362335 166.977600,132.218781 
	C166.232025,131.534607 165.031525,130.432953 163.548523,129.092651 
M94.323822,137.734253 
	C105.826271,145.141541 119.767555,144.782028 130.847977,136.462051 
	C138.269180,130.409149 141.641693,122.306114 142.508163,113.025803 
	C142.971893,108.059128 141.387115,107.004814 136.636734,108.966660 
	C134.183945,109.979637 131.779526,111.143379 129.450638,112.417076 
	C117.852036,118.760506 106.251572,118.614395 94.579605,112.637054 
	C91.919647,111.274864 89.237129,109.927971 86.468857,108.812645 
	C82.170876,107.081001 80.682358,107.950577 81.052856,112.460754 
	C81.872215,122.434883 85.343849,131.178329 94.323822,137.734253 
M140.293289,69.531601 
	C139.596191,69.953995 138.944427,70.621941 138.194901,70.760239 
	C131.731735,71.952850 127.887772,77.295677 129.193771,83.378090 
	C129.884384,86.594528 131.211334,88.777237 134.952225,86.865532 
	C138.025803,85.294846 140.434738,85.936378 142.096252,88.940834 
	C144.348526,93.013588 146.977783,92.423950 149.293976,89.280144 
	C150.699463,87.372459 152.033752,84.988930 152.250153,82.709984 
	C152.839203,76.506233 151.136429,71.506927 140.293289,69.531601 
M71.830376,74.622208 
	C68.580597,81.195686 69.454285,87.157951 74.474823,90.571220 
	C75.492783,91.263298 78.203819,91.410049 78.547768,90.844070 
	C81.591339,85.835640 85.480148,84.639809 90.931549,88.250076 
	C91.852112,85.627541 92.929558,83.734276 93.129402,81.752502 
	C93.596176,77.123779 90.559998,71.870056 86.159805,70.428253 
	C80.992035,68.734940 76.104683,69.748222 71.830376,74.622208 
M63.066757,84.545280 
	C58.414989,81.265778 54.993027,81.183830 52.098915,84.494415 
	C49.309673,87.685036 49.263577,91.099571 51.974438,94.375008 
	C54.410488,97.318413 59.489403,98.119331 62.308376,95.709015 
	C65.793167,92.729401 66.105072,89.010391 63.066757,84.545280 
M169.208344,82.030952 
	C165.264267,81.395279 162.378860,83.650764 161.512299,86.784737 
	C160.849411,89.182137 161.611481,93.071884 163.289734,94.705391 
	C164.925659,96.297714 168.914185,96.881241 171.157730,96.030243 
	C173.245621,95.238274 175.424164,92.103531 175.720840,89.766350 
	C176.184479,86.113983 173.626266,83.408630 169.208344,82.030952 
z"/>
<path fill="#FFD11E" opacity="1.000000" stroke="none" 
	d="
M27.045021,189.026886 
	C24.489693,187.416397 22.053314,186.192230 20.151022,184.400879 
	C19.161024,183.468643 18.286194,180.909149 18.826452,180.195755 
	C19.724808,179.009506 21.966497,177.931549 23.352032,178.217102 
	C26.036098,178.770279 28.496510,180.356140 31.089184,181.417358 
	C35.156628,183.082199 38.621807,186.839706 43.514210,185.700546 
	C43.862736,185.147842 44.211258,184.595123 44.559784,184.042404 
	C42.370804,182.405411 40.361393,180.409775 37.955849,179.205292 
	C32.779755,176.613586 27.316013,174.596405 22.139519,172.005402 
	C19.650930,170.759781 16.856583,168.836578 18.493349,165.388977 
	C20.327019,161.526642 23.700878,163.031998 26.293856,164.292847 
	C31.817575,166.978836 37.124424,170.108612 42.544491,173.011047 
	C44.670918,174.149750 46.862534,175.166687 49.227329,176.339722 
	C51.062180,171.519974 47.659969,169.896545 45.316986,168.287689 
	C39.158371,164.058716 32.696861,160.273514 26.431320,156.195801 
	C24.783171,155.123169 22.885958,153.892151 22.063143,152.252197 
	C21.314682,150.760406 21.285482,148.297043 22.059847,146.870071 
	C22.562460,145.943863 25.611351,145.277023 26.603693,145.916016 
	C34.782684,151.182709 42.735607,156.799515 50.784256,162.270187 
	C53.053547,163.812622 55.412884,165.222565 57.730923,166.693283 
	C58.280918,166.082291 58.830917,165.471298 59.380917,164.860321 
	C57.765720,162.596146 56.336140,160.166840 54.498077,158.100967 
	C50.192444,153.261719 45.680729,148.606171 41.281921,143.848999 
	C40.725430,143.247177 39.983192,142.499725 39.948418,141.789322 
	C39.817398,139.112900 39.943264,136.423874 39.972935,133.739578 
	C42.666073,134.354828 46.495838,134.058289 47.850613,135.747147 
	C53.018166,142.188995 57.407131,149.257843 62.043545,156.121796 
	C63.343800,158.046753 64.077950,160.694092 65.834785,161.873169 
	C67.525185,163.007660 70.754509,163.654251 72.328857,162.770844 
	C75.360069,161.069962 72.945549,158.799484 71.517258,157.074234 
	C70.354218,155.669388 68.546402,154.681168 67.725349,153.135834 
	C66.214088,150.291458 64.299164,147.173050 64.300270,144.169495 
	C64.301132,141.801453 66.925873,139.434357 68.385223,137.066849 
	C70.425636,138.734024 73.433258,139.992523 74.340096,142.138687 
	C78.406082,151.761383 83.833733,160.265686 91.144737,167.806778 
	C100.443756,177.398422 96.134552,193.028992 83.204155,197.812592 
	C74.822289,200.913452 66.073311,200.863083 57.677376,198.762817 
	C47.422569,196.197540 37.469223,192.427170 27.045021,189.026886 
z"/>
<path fill="#FFD11E" opacity="1.000000" stroke="none" 
	d="
M185.577209,133.423676 
	C189.121506,139.425598 185.487823,143.455994 182.095688,147.290787 
	C178.569244,151.277435 174.533936,154.809860 170.907883,158.714325 
	C169.281647,160.465408 168.110352,162.638947 166.521866,164.923920 
	C170.326279,166.967880 172.280884,164.764160 174.415894,163.089767 
	C180.415863,158.384277 186.378845,153.627243 192.495865,149.078018 
	C194.325378,147.717407 196.525330,146.522507 198.720505,146.091187 
	C200.472855,145.746857 203.875824,146.311722 204.085571,147.115280 
	C204.572525,148.980835 204.307526,152.141571 203.041840,153.168793 
	C198.425858,156.915146 193.282288,160.013489 188.321823,163.332565 
	C185.285904,165.363907 181.987167,167.083923 179.259262,169.462982 
	C177.675919,170.843826 176.989105,173.252670 175.898880,175.198944 
	C178.011871,174.748932 180.336197,174.714737 182.197144,173.768845 
	C187.227631,171.211899 192.041138,168.231140 196.986069,165.500656 
	C198.283066,164.784500 199.740784,163.930252 201.132599,163.916092 
	C203.195862,163.895065 205.266190,164.566940 207.333511,164.943848 
	C206.558029,167.088364 206.405426,170.306412 204.894333,171.183121 
	C199.621017,174.242722 193.813187,176.363647 188.342911,179.109116 
	C185.882217,180.344086 183.739197,182.211990 181.452042,183.792725 
	C181.757980,184.531387 182.063919,185.270065 182.369858,186.008728 
	C184.384781,185.603226 186.552170,185.538940 188.382812,184.721008 
	C192.164551,183.031296 195.624191,180.531555 199.500229,179.177841 
	C201.590897,178.447662 205.529877,178.504349 206.423126,179.768692 
	C208.414337,182.587112 206.024918,184.825150 203.332657,186.424698 
	C192.030350,193.139725 179.768524,197.362778 166.821991,198.800690 
	C159.402344,199.624756 151.427277,199.784592 144.293182,197.948059 
	C129.050125,194.023972 125.666969,177.911957 135.960464,166.186676 
	C141.987244,159.321594 146.134003,150.804001 151.104279,143.015610 
	C151.902420,141.764908 152.404068,140.285767 153.352905,139.177811 
	C156.225327,135.823700 159.223633,136.354675 160.980728,140.364197 
	C163.137512,145.285782 161.648590,149.450729 158.315475,153.196579 
	C156.767746,154.935944 154.853943,156.393051 153.541733,158.280930 
	C152.844467,159.284042 152.482117,161.741608 153.009796,162.130768 
	C154.270737,163.060638 156.761337,164.033203 157.656815,163.409988 
	C159.853455,161.881210 161.687515,159.633591 163.205872,157.366104 
	C167.359695,151.162888 171.126068,144.697861 175.345520,138.541885 
	C177.618103,135.226257 180.443314,132.215012 185.577209,133.423676 
z"/>
<path fill="#33353D" opacity="1.000000" stroke="none" 
	d="
M93.938141,137.170929 
	C85.343849,131.178329 81.872215,122.434883 81.052856,112.460754 
	C80.682358,107.950577 82.170876,107.081001 86.468857,108.812645 
	C89.237129,109.927971 91.919647,111.274864 94.579605,112.637054 
	C106.251572,118.614395 117.852036,118.760506 129.450638,112.417076 
	C131.779526,111.143379 134.183945,109.979637 136.636734,108.966660 
	C141.387115,107.004814 142.971893,108.059128 142.508163,113.025803 
	C141.641693,122.306114 138.269180,130.409149 130.476456,136.305756 
	C129.090820,134.847626 128.186234,133.439606 127.044159,132.261826 
	C121.294518,126.332428 119.005501,126.348526 113.636932,132.180222 
	C113.319160,132.525406 112.840942,132.722900 112.197189,133.147583 
	C111.442108,132.289917 110.446465,131.570282 110.015923,130.599915 
	C107.976143,126.002693 104.823936,126.430824 101.750450,129.029205 
	C98.893745,131.444321 96.522903,134.434128 93.938141,137.170929 
z"/>
<path fill="#FB333D" opacity="1.000000" stroke="none" 
	d="
M94.130981,137.452591 
	C96.522903,134.434128 98.893745,131.444321 101.750450,129.029205 
	C104.823936,126.430824 107.976143,126.002693 110.015923,130.599915 
	C110.446465,131.570282 111.442108,132.289917 112.197189,133.147583 
	C112.840942,132.722900 113.319160,132.525406 113.636932,132.180222 
	C119.005501,126.348526 121.294518,126.332428 127.044159,132.261826 
	C128.186234,133.439606 129.090820,134.847626 130.216660,136.477631 
	C119.767555,144.782028 105.826271,145.141541 94.130981,137.452591 
z"/>
<path fill="#34353D" opacity="1.000000" stroke="none" 
	d="
M140.623260,69.525116 
	C151.136429,71.506927 152.839203,76.506233 152.250153,82.709984 
	C152.033752,84.988930 150.699463,87.372459 149.293976,89.280144 
	C146.977783,92.423950 144.348526,93.013588 142.096252,88.940834 
	C140.434738,85.936378 138.025803,85.294846 134.952225,86.865532 
	C131.211334,88.777237 129.884384,86.594528 129.193771,83.378090 
	C127.887772,77.295677 131.731735,71.952850 138.194901,70.760239 
	C138.944427,70.621941 139.596191,69.953995 140.623260,69.525116 
z"/>
<path fill="#32343D" opacity="1.000000" stroke="none" 
	d="
M72.041977,74.308105 
	C76.104683,69.748222 80.992035,68.734940 86.159805,70.428253 
	C90.559998,71.870056 93.596176,77.123779 93.129402,81.752502 
	C92.929558,83.734276 91.852112,85.627541 90.931549,88.250076 
	C85.480148,84.639809 81.591339,85.835640 78.547768,90.844070 
	C78.203819,91.410049 75.492783,91.263298 74.474823,90.571220 
	C69.454285,87.157951 68.580597,81.195686 72.041977,74.308105 
z"/>
<path fill="#FFAD04" opacity="1.000000" stroke="none" 
	d="
M63.345444,84.829971 
	C66.105072,89.010391 65.793167,92.729401 62.308376,95.709015 
	C59.489403,98.119331 54.410488,97.318413 51.974438,94.375008 
	C49.263577,91.099571 49.309673,87.685036 52.098915,84.494415 
	C54.993027,81.183830 58.414989,81.265778 63.345444,84.829971 
z"/>
<path fill="#FFAD04" opacity="1.000000" stroke="none" 
	d="
M169.599121,82.085762 
	C173.626266,83.408630 176.184479,86.113983 175.720840,89.766350 
	C175.424164,92.103531 173.245621,95.238274 171.157730,96.030243 
	C168.914185,96.881241 164.925659,96.297714 163.289734,94.705391 
	C161.611481,93.071884 160.849411,89.182137 161.512299,86.784737 
	C162.378860,83.650764 165.264267,81.395279 169.599121,82.085762 
z"/>
</svg>