<svg version="1.1" id="Layer_1" xmlns="http://www.w3.org/2000/svg" xmlns:xlink="http://www.w3.org/1999/xlink" x="0px" y="0px"
	 width="100%" viewBox="0 0 225 225" enable-background="new 0 0 225 225" xml:space="preserve">
<path fill="#090909" opacity="1.000000" stroke="none" 
	d="
M195.000000,226.000000 
	C140.979111,226.000000 86.958214,226.000000 32.558670,225.632278 
	C27.737972,223.511093 26.104097,220.238129 26.109449,215.499908 
	C26.185266,148.394516 26.183187,81.288963 26.121881,14.183533 
	C26.116642,8.449402 27.869789,3.915776 33.000000,1.000000 
	C72.020897,1.000000 111.041786,1.000000 150.579880,1.342370 
	C152.638763,2.920036 154.309662,4.025486 155.702042,5.410841 
	C168.794388,18.437042 181.666763,31.690899 194.995560,44.469177 
	C199.383942,48.676319 200.935226,53.119251 200.919281,58.992504 
	C200.781097,109.911026 200.771240,160.830307 200.933151,211.748703 
	C200.951721,217.589203 200.339767,222.640106 195.000000,226.000000 
M76.499802,152.385803 
	C115.241066,152.385803 153.982330,152.385803 192.777802,152.385803 
	C192.777802,119.695778 192.777802,87.603600 192.777802,55.036575 
	C177.357254,55.036575 162.134277,55.036575 146.623596,55.036575 
	C146.623596,39.456116 146.623596,24.347649 146.623596,8.979733 
	C144.867172,8.901622 143.396393,8.779576 141.925598,8.779113 
	C107.764801,8.768355 73.603531,8.856365 39.443775,8.668041 
	C34.911030,8.643051 33.912251,10.075259 33.926334,14.366336 
	C34.072922,59.024849 34.014690,103.684029 34.026291,148.343018 
	C34.026623,149.634827 34.170341,150.926620 34.257168,152.385803 
	C48.192135,152.385803 61.845963,152.385803 76.499802,152.385803 
M93.499893,218.232697 
	C126.543213,218.232697 159.586533,218.232697 192.681061,218.232697 
	C192.681061,198.316574 192.681061,179.276871 192.681061,160.297119 
	C139.683456,160.297119 86.990875,160.297119 34.351990,160.297119 
	C34.351990,179.600784 34.351990,198.645081 34.351990,218.232712 
	C53.956341,218.232712 73.228111,218.232712 93.499893,218.232697 
M168.506195,47.725895 
	C174.328339,47.725895 180.150482,47.725895 184.606689,47.725895 
	C174.406052,37.510143 163.981964,27.070614 154.362625,17.437017 
	C154.362625,26.468140 154.362625,36.886177 154.362625,47.725891 
	C158.926132,47.725891 163.219269,47.725891 168.506195,47.725895 
z"/>
<path fill="#FFFFFF" opacity="1.000000" stroke="none" 
	d="
M195.468658,226.000000 
	C200.339767,222.640106 200.951721,217.589203 200.933151,211.748703 
	C200.771240,160.830307 200.781097,109.911026 200.919281,58.992504 
	C200.935226,53.119251 199.383942,48.676319 194.995560,44.469177 
	C181.666763,31.690899 168.794388,18.437042 155.702042,5.410841 
	C154.309662,4.025486 152.638763,2.920036 151.048538,1.342370 
	C175.966919,1.000000 200.933853,1.000000 225.948776,1.000000 
	C225.948776,76.000000 225.948776,151.000000 225.948776,226.000000 
	C215.910812,226.000000 205.924057,226.000000 195.468658,226.000000 
z"/>
<path fill="#FFFFFF" opacity="1.000000" stroke="none" 
	d="
M32.531342,1.000000 
	C27.869789,3.915776 26.116642,8.449402 26.121881,14.183533 
	C26.183187,81.288963 26.185266,148.394516 26.109449,215.499908 
	C26.104097,220.238129 27.737972,223.511093 32.090012,225.632278 
	C21.682384,226.000000 11.364770,226.000000 1.051036,226.000000 
	C1.054918,150.999985 1.054918,75.999977 1.054918,1.000000 
	C11.427451,1.000000 21.745068,1.000000 32.531342,1.000000 
z"/>
<path fill="#FEFEFE" opacity="1.000000" stroke="none" 
	d="
M75.999802,152.385803 
	C61.845963,152.385803 48.192135,152.385803 34.257168,152.385803 
	C34.170341,150.926620 34.026623,149.634827 34.026291,148.343018 
	C34.014690,103.684029 34.072922,59.024849 33.926334,14.366336 
	C33.912251,10.075259 34.911030,8.643051 39.443775,8.668041 
	C73.603531,8.856365 107.764801,8.768355 141.925598,8.779113 
	C143.396393,8.779576 144.867172,8.901622 146.623596,8.979733 
	C146.623596,24.347649 146.623596,39.456116 146.623596,55.036575 
	C162.134277,55.036575 177.357254,55.036575 192.777802,55.036575 
	C192.777802,87.603600 192.777802,119.695778 192.777802,152.385803 
	C153.982330,152.385803 115.241066,152.385803 75.999802,152.385803 
M106.236244,52.051048 
	C107.768417,57.619778 111.637505,62.563507 108.970070,69.106888 
	C105.037201,78.754417 101.755844,88.674210 98.399193,98.546791 
	C96.978813,102.724411 94.314163,105.054535 90.483910,107.293365 
	C84.709587,110.668503 79.217865,114.880547 74.529610,119.645561 
	C70.950531,123.283249 72.200928,128.870331 75.928085,132.072845 
	C79.499222,135.141296 83.214127,134.858231 87.288284,130.577942 
	C89.896828,127.837448 92.850113,124.850761 94.019623,121.419182 
	C98.029495,109.653435 107.380577,105.528519 118.177773,102.914276 
	C122.199799,101.940460 126.162964,100.700058 130.108826,99.442688 
	C133.211960,98.453857 135.427277,99.333740 138.224457,101.140961 
	C142.378647,103.824921 147.208344,106.045784 152.033081,106.941299 
	C156.617508,107.792206 161.645172,102.264702 161.962173,97.615189 
	C162.222580,93.795929 159.285141,90.902840 153.443924,90.430458 
	C149.014252,90.072235 144.494461,90.979179 140.027847,90.854424 
	C138.186584,90.802994 135.634796,90.055199 134.680038,88.715973 
	C129.198364,81.026932 123.961060,73.150940 118.981728,65.126831 
	C117.932404,63.435867 117.920509,60.830864 118.095482,58.701664 
	C118.597359,52.594715 119.796227,46.529739 120.035484,40.421410 
	C120.223442,35.622692 116.525497,31.823500 112.823387,31.888744 
	C108.294617,31.968561 105.074493,35.118576 104.951958,40.385189 
	C104.868027,43.992451 105.639153,47.619598 106.236244,52.051048 
z"/>
<path fill="#FDFDFD" opacity="1.000000" stroke="none" 
	d="
M92.999893,218.232697 
	C73.228111,218.232712 53.956341,218.232712 34.351990,218.232712 
	C34.351990,198.645081 34.351990,179.600784 34.351990,160.297119 
	C86.990875,160.297119 139.683456,160.297119 192.681061,160.297119 
	C192.681061,179.276871 192.681061,198.316574 192.681061,218.232697 
	C159.586533,218.232697 126.543213,218.232697 92.999893,218.232697 
M98.358231,203.317368 
	C98.358231,205.566452 98.358231,207.815521 98.358231,210.322556 
	C103.366180,210.322556 107.677902,210.356171 111.988930,210.315918 
	C122.675415,210.216141 128.505966,204.501785 129.767548,192.940079 
	C130.865952,182.873566 125.275909,173.913925 115.992401,172.199356 
	C110.382820,171.163300 104.522774,171.483353 98.358261,171.173096 
	C98.358261,182.104889 98.358261,192.231293 98.358231,203.317368 
M87.664970,192.123734 
	C94.214325,182.647644 89.687714,172.615601 78.296600,171.658676 
	C74.362549,171.328186 70.377388,171.606094 66.240265,171.606094 
	C66.240265,184.587936 66.240265,197.329102 66.240265,210.075989 
	C68.248085,210.075989 70.005920,210.075989 72.233200,210.075989 
	C72.233200,205.471848 72.233200,201.052582 72.233200,197.897644 
	C77.755554,195.958344 82.443298,194.312119 87.664970,192.123734 
M145.396210,195.450684 
	C146.411682,194.605789 147.385910,193.097824 148.449829,193.031631 
	C152.872696,192.756470 157.322617,192.915985 161.765564,192.915985 
	C161.765564,191.246475 161.765564,190.112534 161.765564,188.519165 
	C156.358368,188.519165 151.112518,188.519165 145.683624,188.519165 
	C145.683624,184.178833 145.683624,180.300613 145.683624,175.971283 
	C151.704727,175.971283 157.445831,175.971283 163.566956,175.971283 
	C163.304108,174.115463 163.112411,172.761902 162.970184,171.757751 
	C154.679703,171.757751 146.939331,171.757751 139.180176,171.757751 
	C139.180176,184.689087 139.180176,197.278931 139.180176,210.053864 
	C141.235229,210.053864 143.139053,210.053864 145.393539,210.053864 
	C145.393539,205.359619 145.393539,200.908020 145.396210,195.450684 
z"/>
<path fill="#F6F6F6" opacity="1.000000" stroke="none" 
	d="
M168.009308,47.725891 
	C163.219269,47.725891 158.926132,47.725891 154.362625,47.725891 
	C154.362625,36.886177 154.362625,26.468140 154.362625,17.437017 
	C163.981964,27.070614 174.406052,37.510143 184.606689,47.725895 
	C180.150482,47.725895 174.328339,47.725895 168.009308,47.725891 
z"/>
<path fill="#060606" opacity="1.000000" stroke="none" 
	d="
M106.132141,51.644455 
	C105.639153,47.619598 104.868027,43.992451 104.951958,40.385189 
	C105.074493,35.118576 108.294617,31.968561 112.823387,31.888744 
	C116.525497,31.823500 120.223442,35.622692 120.035484,40.421410 
	C119.796227,46.529739 118.597359,52.594715 118.095482,58.701664 
	C117.920509,60.830864 117.932404,63.435867 118.981728,65.126831 
	C123.961060,73.150940 129.198364,81.026932 134.680038,88.715973 
	C135.634796,90.055199 138.186584,90.802994 140.027847,90.854424 
	C144.494461,90.979179 149.014252,90.072235 153.443924,90.430458 
	C159.285141,90.902840 162.222580,93.795929 161.962173,97.615189 
	C161.645172,102.264702 156.617508,107.792206 152.033081,106.941299 
	C147.208344,106.045784 142.378647,103.824921 138.224457,101.140961 
	C135.427277,99.333740 133.211960,98.453857 130.108826,99.442688 
	C126.162964,100.700058 122.199799,101.940460 118.177773,102.914276 
	C107.380577,105.528519 98.029495,109.653435 94.019623,121.419182 
	C92.850113,124.850761 89.896828,127.837448 87.288284,130.577942 
	C83.214127,134.858231 79.499222,135.141296 75.928085,132.072845 
	C72.200928,128.870331 70.950531,123.283249 74.529610,119.645561 
	C79.217865,114.880547 84.709587,110.668503 90.483910,107.293365 
	C94.314163,105.054535 96.978813,102.724411 98.399193,98.546791 
	C101.755844,88.674210 105.037201,78.754417 108.970070,69.106888 
	C111.637505,62.563507 107.768417,57.619778 106.132141,51.644455 
M111.133308,82.687614 
	C109.074303,88.497154 107.015305,94.306686 104.825706,100.484688 
	C113.338882,97.843483 121.235680,95.393509 129.132126,92.943634 
	C124.207741,85.825676 119.504257,79.027031 114.668167,72.036713 
	C113.465424,75.688301 112.435081,78.816483 111.133308,82.687614 
M83.600838,125.386635 
	C85.688560,122.417625 87.776291,119.448616 89.864021,116.479607 
	C89.388412,116.046577 88.912796,115.613541 88.437187,115.180511 
	C85.487061,117.844788 82.422043,120.398972 79.678841,123.261543 
	C79.094780,123.871017 79.681915,125.602852 79.729469,126.817612 
	C80.842308,126.521683 81.955147,126.225754 83.600838,125.386635 
M113.116264,50.348331 
	C114.877953,46.445194 115.414902,42.609921 112.478424,38.682220 
	C109.300797,42.923298 109.054909,46.871342 113.116264,50.348331 
M144.698364,97.919029 
	C150.100876,102.156052 152.530151,102.021011 155.559479,96.319107 
	C151.460052,96.651482 147.977402,96.933846 144.698364,97.919029 
z"/>
<path fill="#121212" opacity="1.000000" stroke="none" 
	d="
M98.358246,202.837524 
	C98.358261,192.231293 98.358261,182.104889 98.358261,171.173096 
	C104.522774,171.483353 110.382820,171.163300 115.992401,172.199356 
	C125.275909,173.913925 130.865952,182.873566 129.767548,192.940079 
	C128.505966,204.501785 122.675415,210.216141 111.988930,210.315918 
	C107.677902,210.356171 103.366180,210.322556 98.358231,210.322556 
	C98.358231,207.815521 98.358231,205.566452 98.358246,202.837524 
M104.713890,204.296310 
	C104.774902,204.620529 104.738365,205.159592 104.911003,205.237961 
	C111.670753,208.307068 120.309250,204.759964 122.056740,197.617447 
	C125.325653,184.256439 121.703056,177.023666 109.503716,176.138153 
	C108.058624,176.033264 106.599327,176.123917 104.696404,176.123917 
	C104.696404,185.448273 104.696404,194.391205 104.713890,204.296310 
z"/>
<path fill="#060606" opacity="1.000000" stroke="none" 
	d="
M87.398010,192.394821 
	C82.443298,194.312119 77.755554,195.958344 72.233200,197.897644 
	C72.233200,201.052582 72.233200,205.471848 72.233200,210.075989 
	C70.005920,210.075989 68.248085,210.075989 66.240265,210.075989 
	C66.240265,197.329102 66.240265,184.587936 66.240265,171.606094 
	C70.377388,171.606094 74.362549,171.328186 78.296600,171.658676 
	C89.687714,172.615601 94.214325,182.647644 87.398010,192.394821 
M76.273460,176.050446 
	C75.006577,176.115311 73.739685,176.180176 72.493118,176.243988 
	C72.493118,181.652252 72.493118,186.687836 72.493118,191.686905 
	C81.270027,192.211990 84.133812,190.580902 84.799362,184.901001 
	C85.391373,179.848618 82.971008,177.059174 76.273460,176.050446 
z"/>
<path fill="#0D0D0D" opacity="1.000000" stroke="none" 
	d="
M145.394867,195.953552 
	C145.393539,200.908020 145.393539,205.359619 145.393539,210.053864 
	C143.139053,210.053864 141.235229,210.053864 139.180176,210.053864 
	C139.180176,197.278931 139.180176,184.689087 139.180176,171.757751 
	C146.939331,171.757751 154.679703,171.757751 162.970184,171.757751 
	C163.112411,172.761902 163.304108,174.115463 163.566956,175.971283 
	C157.445831,175.971283 151.704727,175.971283 145.683624,175.971283 
	C145.683624,180.300613 145.683624,184.178833 145.683624,188.519165 
	C151.112518,188.519165 156.358368,188.519165 161.765564,188.519165 
	C161.765564,190.112534 161.765564,191.246475 161.765564,192.915985 
	C157.322617,192.915985 152.872696,192.756470 148.449829,193.031631 
	C147.385910,193.097824 146.411682,194.605789 145.394867,195.953552 
z"/>
<path fill="#F8F8F8" opacity="1.000000" stroke="none" 
	d="
M111.269028,82.316132 
	C112.435081,78.816483 113.465424,75.688301 114.668167,72.036713 
	C119.504257,79.027031 124.207741,85.825676 129.132126,92.943634 
	C121.235680,95.393509 113.338882,97.843483 104.825706,100.484688 
	C107.015305,94.306686 109.074303,88.497154 111.269028,82.316132 
z"/>
<path fill="#EFEFEF" opacity="1.000000" stroke="none" 
	d="
M83.334412,125.658226 
	C81.955147,126.225754 80.842308,126.521683 79.729469,126.817612 
	C79.681915,125.602852 79.094780,123.871017 79.678841,123.261543 
	C82.422043,120.398972 85.487061,117.844788 88.437187,115.180511 
	C88.912796,115.613541 89.388412,116.046577 89.864021,116.479607 
	C87.776291,119.448616 85.688560,122.417625 83.334412,125.658226 
z"/>
<path fill="#E2E2E2" opacity="1.000000" stroke="none" 
	d="
M112.818192,50.578457 
	C109.054909,46.871342 109.300797,42.923298 112.478424,38.682220 
	C115.414902,42.609921 114.877953,46.445194 112.818192,50.578457 
z"/>
<path fill="#DDDDDD" opacity="1.000000" stroke="none" 
	d="
M144.596558,97.567619 
	C147.977402,96.933846 151.460052,96.651482 155.559479,96.319107 
	C152.530151,102.021011 150.100876,102.156052 144.596558,97.567619 
z"/>
<path fill="#FBFBFB" opacity="1.000000" stroke="none" 
	d="
M104.705147,203.815216 
	C104.696404,194.391205 104.696404,185.448273 104.696404,176.123917 
	C106.599327,176.123917 108.058624,176.033264 109.503716,176.138153 
	C121.703056,177.023666 125.325653,184.256439 122.056740,197.617447 
	C120.309250,204.759964 111.670753,208.307068 104.911003,205.237961 
	C104.738365,205.159592 104.774902,204.620529 104.705147,203.815216 
z"/>
<path fill="#F2F2F2" opacity="1.000000" stroke="none" 
	d="
M76.703339,176.058167 
	C82.971008,177.059174 85.391373,179.848618 84.799362,184.901001 
	C84.133812,190.580902 81.270027,192.211990 72.493118,191.686905 
	C72.493118,186.687836 72.493118,181.652252 72.493118,176.243988 
	C73.739685,176.180176 75.006577,176.115311 76.703339,176.058167 
z"/>
</svg>